<?xml version="1.0" standalone="no"?>
<!DOCTYPE svg PUBLIC "-//W3C//DTD SVG 20010904//EN"
 "http://www.w3.org/TR/2001/REC-SVG-20010904/DTD/svg10.dtd">
<svg version="1.0" xmlns="http://www.w3.org/2000/svg"
 width="512.000000pt" height="512.000000pt" viewBox="0 0 512.000000 512.000000"
 preserveAspectRatio="xMidYMid meet">
<metadata>
Created by potrace 1.11, written by Peter Selinger 2001-2013
</metadata>
<g transform="translate(0.000000,512.000000) scale(0.100000,-0.100000)"
fill="#000000" stroke="none">
<path d="M2372 5109 c-430 -31 -864 -179 -1223 -417 -615 -410 -1012 -1034
-1126 -1772 -25 -162 -25 -558 0 -720 60 -389 191 -731 405 -1056 265 -402
685 -750 1133 -938 493 -206 1040 -255 1559 -140 490 109 925 354 1281 721
402 415 637 914 705 1498 20 169 14 482 -11 645 -82 535 -316 1011 -684 1392
-147 153 -271 257 -440 370 -368 244 -790 385 -1246 418 -155 11 -189 11 -353
-1z m1433 -1473 c38 -16 55 -42 55 -84 0 -41 -91 -558 -151 -856 -99 -493
-302 -1344 -338 -1414 -38 -74 -86 -91 -162 -59 -35 14 -1091 791 -1097 806
-2 6 1195 1111 1254 1157 25 20 6 46 -30 42 -20 -2 -320 -187 -828 -511 -438
-279 -801 -507 -807 -507 -5 0 -169 54 -363 121 -371 126 -398 140 -398 195 0
14 14 40 32 59 30 32 117 67 968 389 514 194 1126 426 1360 514 234 88 435
161 448 161 12 1 38 -5 57 -13z"/>
</g>
</svg>
